Format                           : Matroska
File size                        : 2.64 GiB
Duration                         : 2h 13mn
Overall bit rate                 : 2 832 Kbps


Video
Format                           : AVC
Format/Info                      : Advanced Video Codec
Duration                         : 2h 13mn
Bit rate                         : 2 446 Kbps
Width                            : 1 280 pixels
Height                           : 544 pixels
Display aspect ratio             : 2.35:1
Stream size                      : 2.23 GiB (84%)

Audio
Format                           : AC-3
Format/Info                      : Audio Coding 3
Codec ID                         : A_AC3
Duration                         : 2h 13mn
Bit rate                         : 384 Kbps
Channel(s)                       : 6 channels
Channel positions                : Front: L C R, Side: L R, LFE
Compression mode                 : Lossy
Stream size                      : 366 MiB (14%)
Language                         : English

Subtitles                        : English